<?xml version="1.0" encoding="utf-8"?>
<!-- Generator: Adobe Illustrator 16.0.0, SVG Export Plug-In . SVG Version: 6.00 Build 0)  -->
<!DOCTYPE svg PUBLIC "-//W3C//DTD SVG 1.1//EN" "http://www.w3.org/Graphics/SVG/1.1/DTD/svg11.dtd">
<svg version="1.1"
	 id="svg2" inkscape:version="0.48.5 r10040" sodipodi:docname="icon_x_mark_gray.svg" xmlns:svg="http://www.w3.org/2000/svg" xmlns:rdf="http://www.w3.org/1999/02/22-rdf-syntax-ns#" xmlns:inkscape="http://www.inkscape.org/namespaces/inkscape" xmlns:cc="http://creativecommons.org/ns#" xmlns:sodipodi="http://sodipodi.sourceforge.net/DTD/sodipodi-0.dtd" xmlns:dc="http://purl.org/dc/elements/1.1/"
	 xmlns="http://www.w3.org/2000/svg" xmlns:xlink="http://www.w3.org/1999/xlink" x="0px" y="0px" width="412px" height="412px"
	 viewBox="0 0 412 412" enable-background="new 0 0 412 412" xml:space="preserve">
<sodipodi:namedview  id="namedview6" inkscape:window-y="0" inkscape:window-x="0" inkscape:current-layer="svg2" inkscape:window-height="480" inkscape:window-width="640" inkscape:window-maximized="0" inkscape:pageshadow="2" inkscape:pageopacity="0" inkscape:cx="206" inkscape:cy="206" showgrid="false" inkscape:zoom="0.57281553" pagecolor="#ffffff" borderopacity="1" gridtolerance="10" objecttolerance="10" guidetolerance="10" bordercolor="#666666">
	</sodipodi:namedview>
<g id="XMLID_1_">
	<polygon fill="#FFFFFF" points="325.55,287.09 284.12,328.54 207,251.43 129.88,328.55 88.45,287.11 165.56,209.99 88.44,132.88 
		129.89,91.46 207,168.55 284.09,91.44 325.54,132.88 248.44,209.98 	"/>
	<path fill="#999999" d="M206,0c113.77,0,206,92.23,206,206c0,113.77-92.23,206-206,206C92.23,412,0,319.77,0,206
		C0,92.23,92.23,0,206,0z M284.12,328.54l41.43-41.45L248.44,209.98l77.1-77.101l-41.45-41.44L207,168.55l-77.11-77.09l-41.45,41.42
		l77.12,77.11l-77.11,77.12l41.43,41.439L207,251.43L284.12,328.54z"/>
</g>
</svg>
