<?xml version="1.0" encoding="UTF-8" standalone="no"?>
<!-- Created with Inkscape (http://www.inkscape.org/) -->

<svg
   xmlns:dc="http://purl.org/dc/elements/1.1/"
   xmlns:cc="http://creativecommons.org/ns#"
   xmlns:rdf="http://www.w3.org/1999/02/22-rdf-syntax-ns#"
   xmlns:svg="http://www.w3.org/2000/svg"
   xmlns="http://www.w3.org/2000/svg"
   version="1.1"
   width="408.95001"
   height="412"
   viewBox="0 0 408.95001 412"
   id="svg2"
   xml:space="preserve"><metadata
     id="metadata9"><rdf:RDF><cc:Work
         rdf:about=""><dc:format>image/svg+xml</dc:format><dc:type
           rdf:resource="http://purl.org/dc/dcmitype/StillImage" /><dc:title></dc:title></cc:Work></rdf:RDF></metadata><defs
     id="defs7" /><path
     d="M 408.95,358.443 299.875,249.37 c 15.95,-25.137 25.2,-54.923 25.2,-86.833 C 325.076,72.914 252.162,0 162.537,0 72.914,0 0,72.914 0,162.537 c 0,89.623 72.914,162.537 162.537,162.537 30.326,0 58.733,-8.356 83.055,-22.876 L 355.393,412 408.95,358.443 z M 60.592,162.537 c 0,-56.213 45.732,-101.946 101.945,-101.946 56.213,0 101.947,45.733 101.947,101.946 0,56.213 -45.733,101.945 -101.947,101.945 -56.213,0 -101.945,-45.732 -101.945,-101.945 z"
     id="magnifier-icon"
     style="fill:#ffffff" /></svg>