<?xml version="1.0" encoding="UTF-8" standalone="no"?>
<!-- Created with Inkscape (http://www.inkscape.org/) -->

<svg
   xmlns:dc="http://purl.org/dc/elements/1.1/"
   xmlns:cc="http://creativecommons.org/ns#"
   xmlns:rdf="http://www.w3.org/1999/02/22-rdf-syntax-ns#"
   xmlns:svg="http://www.w3.org/2000/svg"
   xmlns="http://www.w3.org/2000/svg"
   version="1.1"
   width="412"
   height="411.69501"
   viewBox="0 0 412 411.69501"
   id="svg2"
   xml:space="preserve"><metadata
     id="metadata9"><rdf:RDF><cc:Work
         rdf:about=""><dc:format>image/svg+xml</dc:format><dc:type
           rdf:resource="http://purl.org/dc/dcmitype/StillImage" /><dc:title></dc:title></cc:Work></rdf:RDF></metadata><defs
     id="defs7" /><path
     d="m 302.475,261.906 c -7.611,0 -15.009,-1.527 -21.987,-4.541 l 8.197,-18.99 c 4.376,1.889 9.015,2.846 13.79,2.846 3.912,0 7.766,-0.65 11.452,-1.936 l 6.803,19.533 c -5.879,2.049 -12.022,3.088 -18.255,3.088 z m -191.732,-0.387 c -6.571,0 -13.026,-1.152 -19.186,-3.424 l 7.152,-19.406 c 3.862,1.424 7.912,2.145 12.033,2.145 4.562,0 9.011,-0.877 13.223,-2.605 l 7.855,19.135 c -6.715,2.756 -13.807,4.155 -21.077,4.155 z m 152.207,-13.752 -29.136,-16.592 10.235,-17.975 29.137,16.592 -10.236,17.975 z m -113.324,-0.346 -10.633,-17.742 28.761,-17.236 10.633,17.744 -28.761,17.234 z m 68.777,-24.722 c -4.266,-1.781 -8.776,-2.686 -13.407,-2.686 -4.053,0.002 -8.039,0.701 -11.845,2.078 l -7.037,-19.451 c 6.069,-2.195 12.421,-3.31 18.88,-3.311 7.383,0 14.573,1.44 21.378,4.279 l -7.969,19.091 z m 128.652,-2.87 c -9.389,0 -17,7.611 -17,17 0,9.389 7.611,17 17,17 9.389,0 17,-7.611 17,-17 0,-9.389 -7.612,-17 -17,-17 z m -282,0 c -9.389,0 -17,7.611 -17,17 0,9.389 7.611,17 17,17 9.389,0 17,-7.611 17,-17 0,-9.389 -7.612,-17 -17,-17 z M 412,65.152 C 412,29.172 382.829,0 346.848,0 c -35.983,0 -65.155,29.172 -65.155,65.152 0,53.506 51.245,59.164 65.155,140.542 C 360.758,124.314 412,118.658 412,65.152 z m -88.519,-1.579 c 0,-12.905 10.46,-23.367 23.366,-23.367 12.904,0 23.365,10.462 23.365,23.367 0,12.903 -10.461,23.364 -23.365,23.364 -12.906,0 -23.366,-10.461 -23.366,-23.364 z m 58.469,124.815 v 143.451 l -74.962,40.703 v -90.213 h -15.023 v 88.572 l -81.806,-52.91 v -75.412 h -14.328 v 75.412 l -79.801,52.91 v -88.572 h -15.027 v 90.213 L 30.05,331.839 V 104.907 l 70.953,37.941 v 75.981 h 15.027 v -75.292 l 79.801,-41.385 v 78.927 h 14.328 v -78.927 l 70.951,35.894 C 270.816,125.078 260.104,110.627 254.908,90.856 L 202.995,64.447 109.184,113.19 0,55.09 v 294.277 l 109.185,62.328 93.811,-62.32 95.814,62.32 L 412,349.367 V 138.779 c -0.664,0.834 -1.326,1.664 -1.983,2.487 -10.782,13.499 -21.106,26.437 -28.067,47.122 z"
     id="map-2-icon" /></svg>