<?xml version="1.0" encoding="utf-8"?>
<!-- Generator: Adobe Illustrator 16.0.0, SVG Export Plug-In . SVG Version: 6.00 Build 0)  -->
<!DOCTYPE svg PUBLIC "-//W3C//DTD SVG 1.1//EN" "http://www.w3.org/Graphics/SVG/1.1/DTD/svg11.dtd">
<svg version="1.1"
	 id="svg2" xmlns:svg="http://www.w3.org/2000/svg" xmlns:rdf="http://www.w3.org/1999/02/22-rdf-syntax-ns#" xmlns:cc="http://creativecommons.org/ns#" xmlns:dc="http://purl.org/dc/elements/1.1/"
	 xmlns="http://www.w3.org/2000/svg" xmlns:xlink="http://www.w3.org/1999/xlink" x="0px" y="0px" width="412px" height="412px"
	 viewBox="0 0 412 412" enable-background="new 0 0 412 412" xml:space="preserve">
<g id="XMLID_1_">
	<polygon fill="#FFFFFF" points="325.55,287.09 284.12,328.54 207,251.43 129.88,328.55 88.45,287.11 165.56,209.99 88.44,132.88 
		129.89,91.46 207,168.55 284.09,91.44 325.54,132.88 248.44,209.98 	"/>
	<path d="M206,0c113.77,0,206,92.23,206,206c0,113.77-92.23,206-206,206C92.23,412,0,319.77,0,206C0,92.23,92.23,0,206,0z
		 M284.12,328.54l41.43-41.45L248.44,209.98l77.1-77.101l-41.45-41.44L207,168.55l-77.11-77.09l-41.45,41.42l77.12,77.11
		l-77.11,77.12l41.43,41.439L207,251.43L284.12,328.54z"/>
</g>
</svg>
