<?xml version="1.0" encoding="utf-8"?>
<!-- Generator: Adobe Illustrator 16.0.0, SVG Export Plug-In . SVG Version: 6.00 Build 0)  -->
<!DOCTYPE svg PUBLIC "-//W3C//DTD SVG 1.1//EN" "http://www.w3.org/Graphics/SVG/1.1/DTD/svg11.dtd">
<svg version="1.1"
	 id="svg2" xmlns:svg="http://www.w3.org/2000/svg" xmlns:rdf="http://www.w3.org/1999/02/22-rdf-syntax-ns#" xmlns:cc="http://creativecommons.org/ns#" xmlns:dc="http://purl.org/dc/elements/1.1/"
	 xmlns="http://www.w3.org/2000/svg" xmlns:xlink="http://www.w3.org/1999/xlink" x="0px" y="0px" width="412px" height="318.557px"
	 viewBox="0 0 412 318.557" enable-background="new 0 0 412 318.557" xml:space="preserve">
<g id="XMLID_1_">
	<polygon fill="#FFFFFF" points="141.32,97.739 97.78,141.279 63.58,107.078 42.65,127.989 42.65,42.609 128.02,42.609 
		107.12,63.549 	"/>
	<polygon fill="#FFFFFF" points="97.78,177.279 141.31,220.819 107.12,255.009 128.02,275.948 42.65,275.948 42.65,190.578 
		63.59,211.479 	"/>
	<polygon fill="#FFFFFF" points="369.43,190.578 369.43,275.948 284.05,275.948 304.96,255.009 271.46,221.519 315,177.979 
		348.49,211.479 	"/>
	<polygon fill="#FFFFFF" points="369.43,42.609 369.43,127.979 348.49,107.078 315,140.578 271.46,97.038 304.96,63.549 
		284.06,42.609 	"/>
	<path d="M412-0.001v318.56H0V-0.001H412z M369.43,275.948v-85.37l-20.939,20.9l-33.49-33.5l-43.54,43.54l33.5,33.49l-20.91,20.939
		H369.43z M369.43,127.979v-85.37h-85.37l20.9,20.94l-33.5,33.49l43.54,43.54l33.49-33.5L369.43,127.979z M97.78,141.279
		l43.54-43.54l-34.2-34.19l20.9-20.94H42.65v85.38l20.93-20.91L97.78,141.279z M141.31,220.819l-43.53-43.54l-34.19,34.2
		l-20.94-20.9v85.37h85.37l-20.9-20.939L141.31,220.819z"/>
</g>
</svg>
