<?xml version="1.0" encoding="utf-8"?>
<!-- Generator: Adobe Illustrator 16.0.0, SVG Export Plug-In . SVG Version: 6.00 Build 0)  -->
<!DOCTYPE svg PUBLIC "-//W3C//DTD SVG 1.1//EN" "http://www.w3.org/Graphics/SVG/1.1/DTD/svg11.dtd">
<svg version="1.1" xmlns="http://www.w3.org/2000/svg" xmlns:xlink="http://www.w3.org/1999/xlink" x="0px" y="0px" width="412px"
	 height="411.695px" viewBox="0 0 412 411.695" enable-background="new 0 0 412 411.695" xml:space="preserve">
<g id="Layer_2">
	<rect fill="#FFFFFF" width="412" height="411.695"/>
</g>
<g id="svg2" xmlns:svg="http://www.w3.org/2000/svg" xmlns:rdf="http://www.w3.org/1999/02/22-rdf-syntax-ns#" xmlns:cc="http://creativecommons.org/ns#" xmlns:dc="http://purl.org/dc/elements/1.1/">
	<path id="map-2-icon" d="M302.475,261.906c-7.61,0-15.009-1.527-21.986-4.541l8.197-18.99c4.375,1.889,9.015,2.846,13.789,2.846
		c3.912,0,7.767-0.65,11.452-1.936l6.804,19.533C314.851,260.867,308.708,261.906,302.475,261.906z M110.743,261.52
		c-6.571,0-13.026-1.152-19.186-3.424l7.152-19.406c3.862,1.424,7.912,2.145,12.033,2.145c4.562,0,9.011-0.877,13.223-2.605
		l7.855,19.136C125.105,260.12,118.013,261.52,110.743,261.52z M262.95,247.768l-29.136-16.593l10.234-17.975l29.137,16.592
		L262.95,247.768z M149.626,247.421l-10.633-17.741l28.761-17.236l10.633,17.744L149.626,247.421z M218.402,222.699
		c-4.266-1.781-8.775-2.686-13.406-2.686c-4.053,0.002-8.039,0.7-11.845,2.077l-7.037-19.451c6.069-2.195,12.421-3.31,18.88-3.311
		c7.383,0,14.572,1.44,21.378,4.279L218.402,222.699L218.402,222.699z M347.055,219.829c-9.389,0-17,7.61-17,17
		c0,9.389,7.611,17,17,17c9.39,0,17-7.611,17-17C364.055,227.439,356.443,219.829,347.055,219.829z M65.055,219.829
		c-9.389,0-17,7.61-17,17c0,9.389,7.611,17,17,17c9.389,0,17-7.611,17-17C82.055,227.439,74.443,219.829,65.055,219.829z
		 M412,65.152C412,29.172,382.829,0,346.848,0c-35.982,0-65.154,29.172-65.154,65.152c0,53.506,51.244,59.164,65.154,140.542
		C360.758,124.314,412,118.658,412,65.152z M323.481,63.573c0-12.905,10.46-23.367,23.365-23.367
		c12.904,0,23.365,10.462,23.365,23.367c0,12.903-10.461,23.364-23.365,23.364C333.941,86.937,323.481,76.476,323.481,63.573z
		 M381.95,188.388v143.451l-74.962,40.703v-90.213h-15.023V370.9l-81.806-52.909v-75.412h-14.328v75.412L116.03,370.9v-88.571
		h-15.027v90.213L30.05,331.839V104.907l70.953,37.941v75.981h15.027v-75.292l79.801-41.385v78.927h14.328v-78.927l70.95,35.894
		c-10.293-12.968-21.006-27.419-26.201-47.19l-51.913-26.409l-93.811,48.743L0,55.09v294.277l109.185,62.328l93.811-62.32
		l95.814,62.32L412,349.367V138.779c-0.664,0.834-1.326,1.664-1.983,2.487C399.235,154.765,388.911,167.703,381.95,188.388z"/>
</g>
</svg>
