<?xml version="1.0" encoding="UTF-8" standalone="no"?>
<!-- Created with Inkscape (http://www.inkscape.org/) -->

<svg
   xmlns:dc="http://purl.org/dc/elements/1.1/"
   xmlns:cc="http://creativecommons.org/ns#"
   xmlns:rdf="http://www.w3.org/1999/02/22-rdf-syntax-ns#"
   xmlns:svg="http://www.w3.org/2000/svg"
   xmlns="http://www.w3.org/2000/svg"
   version="1.1"
   width="412"
   height="318.55701"
   viewBox="0 0 412 318.55701"
   id="svg2"
   xml:space="preserve"><metadata
     id="metadata9"><rdf:RDF><cc:Work
         rdf:about=""><dc:format>image/svg+xml</dc:format><dc:type
           rdf:resource="http://purl.org/dc/dcmitype/StillImage" /><dc:title></dc:title></cc:Work></rdf:RDF></metadata><defs
     id="defs7" /><path
     d="M 0,0 V 318.557 H 412 V 0 H 0 z M 128.023,275.951 H 42.646 v -85.377 l 20.94,20.904 34.195,-34.197 43.534,43.533 -34.196,34.195 20.904,20.942 z M 97.781,141.276 63.585,107.081 42.646,127.984 V 42.607 h 85.376 l -20.903,20.939 34.197,34.197 -43.535,43.533 z m 271.651,134.675 h -85.377 l 20.904,-20.939 -33.496,-33.496 43.533,-43.533 33.496,33.496 20.939,-20.904 v 85.376 z m 0,-147.968 L 348.494,107.08 314.998,140.576 271.464,97.042 304.96,63.547 284.057,42.608 h 85.376 v 85.375 z"
     id="fullscreen-5-icon" /></svg>